<svg width="550" height="41" viewBox="0 0 550 41" fill="none" xmlns="http://www.w3.org/2000/svg">
<g clip-path="url(#clip0_63_59)">
<path d="M0 40.3692V0H10.8204V15.7692H25.1437V0H35.9641V40.3692H25.1437V24.6H10.8204V40.3692H0Z" fill="white"/>
<path d="M51.4551 40.3692H39.7784L52.9341 0H67.7245L80.8803 40.3692H69.2036L60.485 11.1173H60.1736L51.4551 40.3692ZM49.2754 24.4423H71.2275V32.6423H49.2754V24.4423Z" fill="white"/>
<path d="M84.7191 40.3692V0H101.923C104.881 0 107.469 0.591347 109.688 1.77404C111.906 2.95673 113.632 4.61907 114.864 6.76106C116.097 8.90304 116.713 11.4064 116.713 14.2712C116.713 17.1622 116.077 19.6655 114.806 21.7813C113.547 23.897 111.776 25.5264 109.493 26.6697C107.223 27.813 104.569 28.3846 101.533 28.3846H91.258V19.8692H99.3538C100.625 19.8692 101.709 19.6458 102.604 19.199C103.512 18.7391 104.206 18.0886 104.686 17.2476C105.179 16.4066 105.426 15.4144 105.426 14.2712C105.426 13.1147 105.179 12.1292 104.686 11.3144C104.206 10.4865 103.512 9.85577 102.604 9.42211C101.709 8.97532 100.625 8.75192 99.3538 8.75192H95.5394V40.3692H84.7191Z" fill="white"/>
<path d="M126.444 40.9212V32.4058H128.39C129.532 32.4058 130.433 32.3138 131.095 32.1298C131.77 31.9327 132.288 31.591 132.652 31.1048C133.028 30.6054 133.346 29.909 133.605 29.0154L133.995 27.8327L119.048 0H130.102L138.432 16.4L144.815 0H155.713L142.013 31.5385C141.26 33.1942 140.365 34.7383 139.327 36.1707C138.289 37.5899 136.998 38.7397 135.454 39.6202C133.91 40.4875 131.997 40.9212 129.713 40.9212H126.444Z" fill="white"/>
<path d="M161.863 0H172.372V31.9327H182.102V0H192.534V31.9327H202.031V0H212.462V40.3692H161.863V0Z" fill="white"/>
<path d="M220.227 40.3692V0H248.951V8.83077H231.047V15.7692H247.472V24.6H231.047V31.5385H248.873V40.3692H220.227Z" fill="white"/>
<path d="M254.318 40.3692V0H265.138V15.7692H279.461V0H290.282V40.3692H279.461V24.6H265.138V40.3692H254.318Z" fill="white"/>
<path d="M295.42 0H306.24V21.1308H306.551L320.719 0H329.905V40.3692H319.084V19.1596H318.851L304.45 40.3692H295.42V0Z" fill="white"/>
<path d="M367.951 40.3692H357.131V8.75192H353.316C352.058 8.75192 350.975 8.92933 350.066 9.28413C349.158 9.6258 348.458 10.1646 347.965 10.9005C347.484 11.6232 347.244 12.5628 347.244 13.7192C347.244 14.8625 347.484 15.7889 347.965 16.4986C348.458 17.2082 349.158 17.7272 350.066 18.0558C350.975 18.3712 352.058 18.5288 353.316 18.5288H361.412V27.0442H351.137C348.114 27.0442 345.461 26.5383 343.177 25.5264C340.894 24.5146 339.116 23.0165 337.845 21.0322C336.586 19.0479 335.957 16.6103 335.957 13.7192C335.957 10.8545 336.573 8.39712 337.806 6.34712C339.038 4.29712 340.764 2.72676 342.982 1.63606C345.214 0.545353 347.802 0 350.747 0H367.951V40.3692ZM344.598 21.8404H356.119L346.388 40.3692H334.634L344.598 21.8404Z" fill="white"/>
<path d="M373.074 0H386.541L395.805 22.8654H396.272L405.535 0H419.002V40.3692H408.416V17.0308H408.104L399.23 40.0538H392.847L383.972 16.8731H383.661V40.3692H373.074V0Z" fill="white"/>
<path d="M430.124 41C428.619 41 427.329 40.4678 426.252 39.4034C425.188 38.3258 424.662 37.0183 424.675 35.4808C424.662 33.9827 425.188 32.7014 426.252 31.637C427.329 30.5726 428.619 30.0404 430.124 30.0404C431.552 30.0404 432.81 30.5726 433.9 31.637C435.003 32.7014 435.561 33.9827 435.574 35.4808C435.561 36.5058 435.295 37.4388 434.776 38.2798C434.27 39.1077 433.608 39.7713 432.791 40.2707C431.973 40.7569 431.085 41 430.124 41Z" fill="white"/>
<path d="M441.256 40.3692V0H452.077V15.7692H466.4V0H477.22V40.3692H466.4V24.6H452.077V40.3692H441.256Z" fill="#DCCD72"/>
<path d="M482.358 40.3692V0H511.083V8.83077H493.178V15.7692H509.604V24.6H493.178V31.5385H511.005V40.3692H482.358Z" fill="#DCCD72"/>
<path d="M515.359 8.83077V0H550V8.83077H538.012V40.3692H527.347V8.83077H515.359Z" fill="#DCCD72"/>
</g>
<defs>
<clipPath id="clip0_63_59">
<rect width="550" height="41" fill="white"/>
</clipPath>
</defs>
</svg>
